<svg xmlns="http://www.w3.org/2000/svg" viewBox="0 50 520 185" role="img" aria-label="90/90 Hüftrotation: Wechsel von einer Seite zur anderen, Ansicht von oben">
<defs><style>
.b{stroke:#1d211c;stroke-width:9;stroke-linecap:round;stroke-linejoin:round;fill:none}
.far{stroke:#a3a9a0}
.hd{fill:#1d211c}
.fl{stroke:#c9cdc5;stroke-width:3}
.dv{stroke:#e1e4de;stroke-width:1.5;stroke-dasharray:4 5}
.ac{stroke:#2e7d32;stroke-width:3;stroke-dasharray:6 5;fill:none}
.acf{fill:#2e7d32;opacity:.35}
.acb{stroke:#2e7d32;stroke-width:5;stroke-linecap:round}
.ar{stroke:#c77700;stroke-width:3;fill:none;stroke-linecap:round}
.arh{fill:#c77700}
.bench{fill:#e1e4de;stroke:#a3a9a0;stroke-width:2}
text{font-family:system-ui,sans-serif;font-size:13px;fill:#646b62}
.vw{font-size:11px;font-style:italic}
.band{stroke:#a3a9a0;stroke-width:3;fill:none}
.pil{fill:#e1e4de}
.lb{font-weight:600;fill:#1d211c}
@media (prefers-color-scheme:dark){
.b{stroke:#e8ebe6}.far{stroke:#6f766c}.hd{fill:#e8ebe6}.fl{stroke:#4a4f48}.dv{stroke:#2f332e}
.ac,.acb{stroke:#7bc67e}.acf{fill:#7bc67e}.ar{stroke:#f0a640}.arh{fill:#f0a640}
.bench{fill:#2f332e;stroke:#6f766c}text{fill:#9aa197}.lb{fill:#e8ebe6}.band{stroke:#6f766c}.pil{fill:#2f332e}}
</style>
<marker id="ah" viewBox="0 0 10 10" refX="7" refY="5" markerWidth="4" markerHeight="4" orient="auto"><path class="arh" d="M0 0L10 5L0 10z"/></marker></defs>
<line class="dv" x1="260" y1="58" x2="260" y2="215"/>
<text class="lb" x="12" y="68">Start</text><text class="lb" x="272" y="68">Ende</text>
<text class="vw" x="248" y="68" text-anchor="end">Ansicht von oben</text>
<ellipse class="acf" cx="130" cy="122" rx="24" ry="9"/>
<polyline class="b" points="142,122 150,170 100,172"/>
<polyline class="b" points="118,122 70,125 68,80"/>
<line class="b" x1="118" y1="122" x2="142" y2="122"/>
<line class="b" x1="106" y1="105" x2="154" y2="105"/>
<circle class="hd" cx="130" cy="96" r="12"/>
<path class="ar" d="M60 145 Q100 218 195 178" marker-end="url(#ah)"/>
<text x="130" y="225" text-anchor="middle">Sitz, beide Knie 90°</text>
<g transform="translate(260 0)">
<ellipse class="acf" cx="130" cy="122" rx="24" ry="9"/>
<polyline class="b" points="118,122 110,170 160,172"/>
<polyline class="b" points="142,122 190,125 192,80"/>
<line class="b" x1="118" y1="122" x2="142" y2="122"/>
<line class="b" x1="106" y1="105" x2="154" y2="105"/>
<circle class="hd" cx="130" cy="96" r="12"/>
<text x="130" y="225" text-anchor="middle">Knie zur anderen Seite kippen</text>
</g>
</svg>
